# xmcd CD database file
#
# Track frame offsets:
#	150
#	31697
#	57025
#	88955
#	112497
#	136880
#	169837
#	202009
#	232787
#	263777
#
# Disc length: 3697 seconds
#
# Revision: 0
# Processed by: cddbd v1.5PL3 Copyright (c) Steve Scherf et al.
# Submitted via: CDex 1.51
#
DISCID=870e6f0a
DTITLE=Fredrik Ljungkvist - Yun kan 12345
DYEAR=2004
DGENRE=Jazz
TTITLE0=King Kolax
TTITLE1=Jag vet inte
TTITLE2=Sunburst
TTITLE3=Eddie A.
TTITLE4=Västgötaklimax
TTITLE5=Birger
TTITLE6=Ballad för Eva
TTITLE7=Abraxas
TTITLE8=Rumi
TTITLE9=Man about town
EXTD=YEAR: 2004
EXTT0=
EXTT1=
EXTT2=
EXTT3=
EXTT4=
EXTT5=
EXTT6=
EXTT7=
EXTT8=
EXTT9=
PLAYORDER=
